<svg width="375" height="92" viewBox="0 0 375 92" fill="none" xmlns="http://www.w3.org/2000/svg">
<path fill-rule="evenodd" clip-rule="evenodd" d="M324.293 61.2929C324.683 60.9024 325.317 60.9024 325.707 61.2929L331 66.5858L336.293 61.2929C336.683 60.9024 337.317 60.9024 337.707 61.2929C338.098 61.6834 338.098 62.3166 337.707 62.7071L332.414 68L337.707 73.2929C338.098 73.6834 338.098 74.3166 337.707 74.7071C337.317 75.0976 336.683 75.0976 336.293 74.7071L331 69.4142L325.707 74.7071C325.317 75.0976 324.683 75.0976 324.293 74.7071C323.902 74.3166 323.902 73.6834 324.293 73.2929L329.586 68L324.293 62.7071C323.902 62.3166 323.902 61.6834 324.293 61.2929Z" fill="white"/>
</svg>
